<svg aria-hidden="true" style="position: absolute; width: 0; height: 0; overflow: hidden;" version="1.1" xmlns="http://www.w3.org/2000/svg" xmlns:xlink="http://www.w3.org/1999/xlink">
<defs>
<symbol id="icon-logo" viewBox="0 0 87 32">
<path fill="#f46752" style="fill: var(--color1, #f46752)" d="M7.283 0v13.341c1.28-0.931 2.477-1.635 3.6-2.1s2.17-0.698 3.146-0.698c2.123 0 3.891 0.924 5.299 2.769s2.111 4.189 2.111 7.035c0 3.276-0.93 5.952-2.792 8.035s-4.252 3.124-7.183 3.124c-0.744 0-1.477-0.122-2.198-0.366-0.721-0.245-1.378-0.605-1.983-1.077l-5.299 1.53v-23.773c0-1.221-0.152-2.292-0.454-3.212-0.303-0.913-0.814-1.88-1.529-2.885l7.283-1.723zM7.283 28.636c0.517 0.175 1.017 0.303 1.494 0.401 0.483 0.093 0.925 0.139 1.326 0.139 1.78 0 3.216-0.721 4.31-2.164s1.634-3.374 1.634-5.783c0-2.397-0.547-4.282-1.634-5.656-1.093-1.373-2.582-2.060-4.479-2.060-0.314 0-0.669 0.024-1.065 0.064s-0.925 0.122-1.582 0.239v14.819h-0.005v0.001z"></path>
<path fill="#f46752" style="fill: var(--color1, #f46752)" d="M41.687 20.171h-12.971v0.344c0 2.699 0.709 4.752 2.134 6.149 1.42 1.402 3.49 2.101 6.206 2.101 0.605 0 1.297-0.041 2.077-0.117 0.785-0.081 1.681-0.198 2.705-0.355-1.262 1.163-2.618 2.042-4.060 2.641-1.442 0.593-2.96 0.896-4.554 0.896-3.018 0-5.427-0.943-7.23-2.822s-2.705-4.404-2.705-7.563c0-3.206 0.942-5.824 2.833-7.855s4.327-3.048 7.311-3.048c2.553 0 4.571 0.838 6.044 2.52s2.21 3.979 2.21 6.895v0.214h0.001zM36.039 18.315c0-1.908-0.291-3.391-0.873-4.439s-1.402-1.571-2.466-1.571c-1.262 0-2.233 0.6-2.908 1.797s-1.029 2.956-1.053 5.271l7.3-1.059z"></path>
<path fill="#f46752" style="fill: var(--color1, #f46752)" d="M50.523 0v24.891c0 1.466 0.133 2.652 0.4 3.566s0.68 1.845 1.239 2.793h-8.556c0.559-0.977 0.972-1.925 1.239-2.856 0.267-0.925 0.4-2.095 0.4-3.503v-17.071c0-1.221-0.157-2.292-0.465-3.212-0.314-0.913-0.825-1.88-1.542-2.885l7.285-1.723z"></path>
<path fill="#f46752" style="fill: var(--color1, #f46752)" d="M61.766 0v24.891c0 1.466 0.133 2.652 0.4 3.566s0.681 1.845 1.239 2.793h-8.55c0.558-0.977 0.972-1.925 1.239-2.856 0.268-0.925 0.401-2.095 0.401-3.503v-17.071c0-1.221-0.158-2.292-0.466-3.212-0.314-0.913-0.825-1.88-1.547-2.885l7.284-1.723z"></path>
<path fill="#f46752" style="fill: var(--color1, #f46752)" d="M65.814 21.225c0-3.235 0.983-5.824 2.95-7.768 1.965-1.949 4.589-2.92 7.864-2.92 3.146 0 5.636 0.96 7.474 2.874 1.839 1.92 2.758 4.509 2.758 7.768 0 3.287-0.977 5.916-2.931 7.878s-4.572 2.944-7.864 2.944c-3.146 0-5.642-0.972-7.486-2.909-1.839-1.938-2.764-4.562-2.764-7.867zM76.283 12.177c-1.436 0-2.565 0.792-3.391 2.368-0.825 1.583-1.238 3.765-1.238 6.552 0 2.856 0.424 5.108 1.274 6.755s1.995 2.468 3.449 2.468c1.477 0 2.635-0.792 3.466-2.381s1.25-3.823 1.25-6.715c0-2.856-0.424-5.079-1.274-6.667-0.848-1.588-2.023-2.38-3.536-2.38z"></path>
</symbol>
<symbol id="icon-menu-close" viewBox="0 0 32 32">
<path d="M23.733 10.304l-1.504-1.504-5.963 5.963-5.963-5.963-1.504 1.504 5.963 5.963-5.963 5.963 1.504 1.504 5.963-5.963 5.963 5.963 1.504-1.504-5.963-5.963 5.963-5.963z"></path>
</symbol>
<symbol id="icon-menu" viewBox="0 0 32 32">
<path d="M6.4 11.733v-2.133h19.2v2.133h-19.2zM6.4 17.067h19.2v-2.133h-19.2v2.133zM6.4 22.4h19.2v-2.133h-19.2v2.133z"></path>
</symbol>
<symbol id="icon-Shape" viewBox="0 0 87 32">
<path d="M86.832 19.468c-0.314-1.782-0.298-4.188-1.039-5.894-0.478-1.046-1.712-1.394-2.544-1.954-1.307-0.759-2.638-1.655-3.944-2.414-4.918-2.949-9.837-5.898-14.755-8.847 0.499 0.336 0.556 3.153 0.653 3.701s0.154 3.365 0.653 3.701c2.471 1.543 5.060 2.924 7.531 4.467-24.255 0.461-48.653 0.947-72.884 1.544 0.284-0.050 0.854 7.34 1.281 7.265 22.050-0.496 44.243-1.017 66.459-1.401-2.771 0.913-5.636 2.125-8.168 3.56-0.402 0.212 0.244 2.218 0.701 3.975 0.193 1.097 0.387 2.193 0.58 3.29 0.403-0.212 0.947-0.449 1.35-0.662 0 0 0.142-0.025 0.118-0.162 4.284-2.31 9.046-3.574 13.808-4.837 2.653-0.751 5.331-1.364 7.935-2.389 1.516-0.55 2.202-0.812 2.318-1.822 0.024 0.137 0.166 0.112 0.191 0.249-0.048-0.274-0.097-0.548-0.145-0.822-0.024-0.137-0.072-0.411-0.097-0.548zM80.111 16.271c-0.142 0.025-0.142 0.025-0.284 0.050-0.024-0.137-0.048-0.274-0.048-0.274s0.166 0.112 0.333 0.224z"></path>
</symbol>
</defs>
</svg>
